<mxfile host="Electron" agent="Mozilla/5.0 (Macintosh; Intel Mac OS X 10_15_7) AppleWebKit/537.36 (KHTML, like Gecko) draw.io/28.0.6 Chrome/138.0.7204.100 Electron/37.2.3 Safari/537.36" version="28.0.6">
  <diagram name="Architecture" id="BiWN0qJYVBP6iHNUTOdj">
    <mxGraphModel dx="2852" dy="2887" grid="1" gridSize="10" guides="1" tooltips="1" connect="1" arrows="1" fold="1" page="1" pageScale="1" pageWidth="827" pageHeight="1169" math="0" shadow="0">
      <root>
        <mxCell id="jaVn6kAeWoAx7fAeWD2t-0" />
        <mxCell id="jaVn6kAeWoAx7fAeWD2t-1" parent="jaVn6kAeWoAx7fAeWD2t-0" />
        <mxCell id="3ZEDYdZOt8HnsqAudEdo-0" value="" style="rounded=1;whiteSpace=wrap;html=1;fillColor=none;" vertex="1" parent="jaVn6kAeWoAx7fAeWD2t-1">
          <mxGeometry y="-190" width="3030" height="1230" as="geometry" />
        </mxCell>
        <mxCell id="LZ4dL6K--WlsWeAgNod2-9" value="" style="group" parent="jaVn6kAeWoAx7fAeWD2t-1" vertex="1" connectable="0">
          <mxGeometry x="210" y="-650" width="680" height="330" as="geometry" />
        </mxCell>
        <mxCell id="LZ4dL6K--WlsWeAgNod2-7" style="edgeStyle=orthogonalEdgeStyle;rounded=0;orthogonalLoop=1;jettySize=auto;html=1;entryX=0.764;entryY=0.8;entryDx=0;entryDy=0;entryPerimeter=0;endArrow=none;endFill=0;dashed=1;dashPattern=12 12;" parent="LZ4dL6K--WlsWeAgNod2-9" source="LZ4dL6K--WlsWeAgNod2-4" target="LZ4dL6K--WlsWeAgNod2-5" edge="1">
          <mxGeometry relative="1" as="geometry" />
        </mxCell>
        <mxCell id="LZ4dL6K--WlsWeAgNod2-8" style="edgeStyle=orthogonalEdgeStyle;rounded=0;orthogonalLoop=1;jettySize=auto;html=1;entryX=0.526;entryY=0.943;entryDx=0;entryDy=0;entryPerimeter=0;endArrow=none;endFill=0;dashed=1;dashPattern=12 12;" parent="LZ4dL6K--WlsWeAgNod2-9" source="LZ4dL6K--WlsWeAgNod2-6" target="LZ4dL6K--WlsWeAgNod2-5" edge="1">
          <mxGeometry relative="1" as="geometry" />
        </mxCell>
        <mxCell id="LZ4dL6K--WlsWeAgNod2-0" value="" style="rounded=0;whiteSpace=wrap;html=1;fillColor=none;strokeColor=default;dashed=1;dashPattern=12 12;labelPosition=center;verticalLabelPosition=bottom;align=center;verticalAlign=top;" parent="LZ4dL6K--WlsWeAgNod2-9" vertex="1">
          <mxGeometry width="370" height="280" as="geometry" />
        </mxCell>
        <mxCell id="LZ4dL6K--WlsWeAgNod2-4" value="" style="shape=waypoint;sketch=0;fillStyle=solid;size=6;pointerEvents=1;points=[];fillColor=none;resizable=0;rotatable=0;perimeter=centerPerimeter;snapToPoint=1;strokeColor=none;" parent="LZ4dL6K--WlsWeAgNod2-9" vertex="1">
          <mxGeometry y="68" width="20" height="20" as="geometry" />
        </mxCell>
        <mxCell id="LZ4dL6K--WlsWeAgNod2-5" value="" style="shape=waypoint;sketch=0;fillStyle=solid;size=6;pointerEvents=1;points=[];fillColor=none;resizable=0;rotatable=0;perimeter=centerPerimeter;snapToPoint=1;strokeColor=none;" parent="LZ4dL6K--WlsWeAgNod2-9" vertex="1">
          <mxGeometry x="230" y="68" width="20" height="20" as="geometry" />
        </mxCell>
        <mxCell id="LZ4dL6K--WlsWeAgNod2-6" value="" style="shape=waypoint;sketch=0;fillStyle=solid;size=6;pointerEvents=1;points=[];fillColor=none;resizable=0;rotatable=0;perimeter=centerPerimeter;snapToPoint=1;strokeColor=none;" parent="LZ4dL6K--WlsWeAgNod2-9" vertex="1">
          <mxGeometry x="230" width="20" height="20" as="geometry" />
        </mxCell>
        <mxCell id="LZ4dL6K--WlsWeAgNod2-1" value="Data Sources" style="image;aspect=fixed;perimeter=ellipsePerimeter;html=1;align=left;shadow=0;dashed=0;fontColor=#4277BB;labelBackgroundColor=default;fontSize=12;spacingTop=3;image=img/lib/ibm/data/data_sources.svg;labelPosition=right;verticalLabelPosition=middle;verticalAlign=middle;" parent="LZ4dL6K--WlsWeAgNod2-9" vertex="1">
          <mxGeometry x="20" y="20" width="48" height="48" as="geometry" />
        </mxCell>
        <mxCell id="jaVn6kAeWoAx7fAeWD2t-6" value="Mobile App" style="html=1;verticalLabelPosition=bottom;align=center;labelBackgroundColor=#ffffff;verticalAlign=top;strokeWidth=2;strokeColor=#0080F0;shadow=0;dashed=0;shape=mxgraph.ios7.icons.smartphone;aspect=fixed;" parent="LZ4dL6K--WlsWeAgNod2-9" vertex="1">
          <mxGeometry x="240" y="120" width="48" height="80" as="geometry" />
        </mxCell>
        <mxCell id="LZ4dL6K--WlsWeAgNod2-10" value="&lt;span style=&quot;color: rgb(0, 0, 0); background-color: rgb(236, 236, 236);&quot;&gt;STEDI Step&lt;/span&gt;&lt;br style=&quot;color: rgb(0, 0, 0); background-color: rgb(236, 236, 236);&quot;&gt;&lt;span style=&quot;color: rgb(0, 0, 0); background-color: rgb(236, 236, 236);&quot;&gt;Trainer sensors&lt;/span&gt;" style="image;aspect=fixed;perimeter=ellipsePerimeter;html=1;align=center;shadow=0;dashed=0;fontColor=#4277BB;labelBackgroundColor=default;fontSize=12;spacingTop=3;image=img/lib/ibm/users/sensor.svg;" parent="LZ4dL6K--WlsWeAgNod2-9" vertex="1">
          <mxGeometry x="80" y="120" width="80" height="80" as="geometry" />
        </mxCell>
        <mxCell id="jaVn6kAeWoAx7fAeWD2t-12" value="AWS Data Lakehouse" style="sketch=0;points=[[0,0,0],[0.25,0,0],[0.5,0,0],[0.75,0,0],[1,0,0],[0,1,0],[0.25,1,0],[0.5,1,0],[0.75,1,0],[1,1,0],[0,0.25,0],[0,0.5,0],[0,0.75,0],[1,0.25,0],[1,0.5,0],[1,0.75,0]];outlineConnect=0;fontColor=#232F3E;fillColor=#8C4FFF;strokeColor=#ffffff;dashed=0;verticalLabelPosition=middle;verticalAlign=middle;align=left;html=1;fontSize=36;fontStyle=0;aspect=fixed;shape=mxgraph.aws4.resourceIcon;resIcon=mxgraph.aws4.lake_formation;labelPosition=right;" parent="jaVn6kAeWoAx7fAeWD2t-1" vertex="1">
          <mxGeometry x="1465" y="-110" width="100" height="100" as="geometry" />
        </mxCell>
        <mxCell id="2ckgP9qTyjaE4JfGrN5B-12" value="" style="group" parent="jaVn6kAeWoAx7fAeWD2t-1" vertex="1" connectable="0">
          <mxGeometry x="150" y="60" width="490" height="310" as="geometry" />
        </mxCell>
        <mxCell id="jaVn6kAeWoAx7fAeWD2t-28" style="edgeStyle=orthogonalEdgeStyle;rounded=0;orthogonalLoop=1;jettySize=auto;html=1;entryX=0.95;entryY=0.7;entryDx=0;entryDy=0;entryPerimeter=0;endArrow=none;endFill=0;strokeColor=none;" parent="2ckgP9qTyjaE4JfGrN5B-12" source="jaVn6kAeWoAx7fAeWD2t-10" edge="1">
          <mxGeometry relative="1" as="geometry">
            <mxPoint x="340" y="310" as="targetPoint" />
          </mxGeometry>
        </mxCell>
        <mxCell id="2ckgP9qTyjaE4JfGrN5B-1" style="edgeStyle=orthogonalEdgeStyle;rounded=0;orthogonalLoop=1;jettySize=auto;html=1;entryX=0.764;entryY=0.8;entryDx=0;entryDy=0;entryPerimeter=0;endArrow=none;endFill=0;dashed=1;dashPattern=12 12;" parent="2ckgP9qTyjaE4JfGrN5B-12" source="2ckgP9qTyjaE4JfGrN5B-4" target="2ckgP9qTyjaE4JfGrN5B-5" edge="1">
          <mxGeometry relative="1" as="geometry" />
        </mxCell>
        <mxCell id="2ckgP9qTyjaE4JfGrN5B-2" style="edgeStyle=orthogonalEdgeStyle;rounded=0;orthogonalLoop=1;jettySize=auto;html=1;entryX=0.526;entryY=0.943;entryDx=0;entryDy=0;entryPerimeter=0;endArrow=none;endFill=0;dashed=1;dashPattern=12 12;" parent="2ckgP9qTyjaE4JfGrN5B-12" source="2ckgP9qTyjaE4JfGrN5B-6" target="2ckgP9qTyjaE4JfGrN5B-5" edge="1">
          <mxGeometry relative="1" as="geometry" />
        </mxCell>
        <mxCell id="2ckgP9qTyjaE4JfGrN5B-3" value="" style="rounded=0;whiteSpace=wrap;html=1;fillColor=none;strokeColor=default;dashed=1;dashPattern=12 12;labelPosition=center;verticalLabelPosition=bottom;align=center;verticalAlign=top;" parent="2ckgP9qTyjaE4JfGrN5B-12" vertex="1">
          <mxGeometry x="10" y="10" width="480" height="250" as="geometry" />
        </mxCell>
        <mxCell id="2ckgP9qTyjaE4JfGrN5B-4" value="" style="shape=waypoint;sketch=0;fillStyle=solid;size=6;pointerEvents=1;points=[];fillColor=none;resizable=0;rotatable=0;perimeter=centerPerimeter;snapToPoint=1;strokeColor=none;" parent="2ckgP9qTyjaE4JfGrN5B-12" vertex="1">
          <mxGeometry y="68" width="20" height="20" as="geometry" />
        </mxCell>
        <mxCell id="2ckgP9qTyjaE4JfGrN5B-5" value="" style="shape=waypoint;sketch=0;fillStyle=solid;size=6;pointerEvents=1;points=[];fillColor=none;resizable=0;rotatable=0;perimeter=centerPerimeter;snapToPoint=1;strokeColor=none;" parent="2ckgP9qTyjaE4JfGrN5B-12" vertex="1">
          <mxGeometry x="230" y="68" width="20" height="20" as="geometry" />
        </mxCell>
        <mxCell id="2ckgP9qTyjaE4JfGrN5B-6" value="" style="shape=waypoint;sketch=0;fillStyle=solid;size=6;pointerEvents=1;points=[];fillColor=none;resizable=0;rotatable=0;perimeter=centerPerimeter;snapToPoint=1;strokeColor=none;" parent="2ckgP9qTyjaE4JfGrN5B-12" vertex="1">
          <mxGeometry x="230" width="20" height="20" as="geometry" />
        </mxCell>
        <mxCell id="LZ4dL6K--WlsWeAgNod2-11" value="Accelerometer" style="sketch=0;outlineConnect=0;fontColor=#232F3E;gradientColor=none;strokeColor=#ffffff;fillColor=#232F3E;dashed=0;verticalLabelPosition=middle;verticalAlign=bottom;align=center;html=1;whiteSpace=wrap;fontSize=10;fontStyle=1;spacing=3;shape=mxgraph.aws4.productIcon;prIcon=mxgraph.aws4.s3;movable=1;resizable=1;rotatable=1;deletable=1;editable=1;locked=0;connectable=1;points=[];" parent="2ckgP9qTyjaE4JfGrN5B-12" vertex="1">
          <mxGeometry x="370" y="120" width="80" height="100" as="geometry" />
        </mxCell>
        <mxCell id="jaVn6kAeWoAx7fAeWD2t-8" value="Customer" style="sketch=0;outlineConnect=0;fontColor=#232F3E;gradientColor=none;strokeColor=#ffffff;fillColor=#232F3E;dashed=0;verticalLabelPosition=middle;verticalAlign=bottom;align=center;html=1;whiteSpace=wrap;fontSize=10;fontStyle=1;spacing=3;shape=mxgraph.aws4.productIcon;prIcon=mxgraph.aws4.s3;movable=1;resizable=1;rotatable=1;deletable=1;editable=1;locked=0;connectable=1;points=[];" parent="2ckgP9qTyjaE4JfGrN5B-12" vertex="1">
          <mxGeometry x="50" y="119.99999999999997" width="80" height="100" as="geometry" />
        </mxCell>
        <mxCell id="2ckgP9qTyjaE4JfGrN5B-10" value="Landing Zone" style="sketch=0;points=[[0,0,0],[0.25,0,0],[0.5,0,0],[0.75,0,0],[1,0,0],[0,1,0],[0.25,1,0],[0.5,1,0],[0.75,1,0],[1,1,0],[0,0.25,0],[0,0.5,0],[0,0.75,0],[1,0.25,0],[1,0.5,0],[1,0.75,0]];outlineConnect=0;fontColor=#232F3E;fillColor=#660033;strokeColor=#ffffff;dashed=0;verticalLabelPosition=middle;verticalAlign=middle;align=left;html=1;fontSize=12;fontStyle=0;aspect=fixed;shape=mxgraph.aws4.resourceIcon;resIcon=mxgraph.aws4.s3;labelPosition=right;" parent="2ckgP9qTyjaE4JfGrN5B-12" vertex="1">
          <mxGeometry x="20" y="20" width="48" height="48" as="geometry" />
        </mxCell>
        <mxCell id="jaVn6kAeWoAx7fAeWD2t-10" value="Step Trainer" style="sketch=0;outlineConnect=0;fontColor=#232F3E;gradientColor=none;strokeColor=#ffffff;fillColor=#232F3E;dashed=0;verticalLabelPosition=middle;verticalAlign=bottom;align=center;html=1;whiteSpace=wrap;fontSize=10;fontStyle=1;spacing=3;shape=mxgraph.aws4.productIcon;prIcon=mxgraph.aws4.s3;movable=1;resizable=1;rotatable=1;deletable=1;editable=1;locked=0;connectable=1;points=[];" parent="2ckgP9qTyjaE4JfGrN5B-12" vertex="1">
          <mxGeometry x="210" y="120" width="80" height="100" as="geometry" />
        </mxCell>
        <mxCell id="2ckgP9qTyjaE4JfGrN5B-13" style="edgeStyle=orthogonalEdgeStyle;rounded=0;orthogonalLoop=1;jettySize=auto;html=1;" parent="jaVn6kAeWoAx7fAeWD2t-1" source="LZ4dL6K--WlsWeAgNod2-0" target="2ckgP9qTyjaE4JfGrN5B-3" edge="1">
          <mxGeometry relative="1" as="geometry">
            <Array as="points">
              <mxPoint x="395" y="-40" />
              <mxPoint x="395" y="-40" />
            </Array>
          </mxGeometry>
        </mxCell>
        <mxCell id="2ckgP9qTyjaE4JfGrN5B-14" value="Ingest&lt;br&gt;RAW&lt;br&gt;Data" style="edgeLabel;html=1;align=center;verticalAlign=middle;resizable=0;points=[];" parent="2ckgP9qTyjaE4JfGrN5B-13" vertex="1" connectable="0">
          <mxGeometry x="-0.0925" y="2" relative="1" as="geometry">
            <mxPoint x="17" y="-91" as="offset" />
          </mxGeometry>
        </mxCell>
        <mxCell id="2ckgP9qTyjaE4JfGrN5B-16" value="" style="group" parent="jaVn6kAeWoAx7fAeWD2t-1" vertex="1" connectable="0">
          <mxGeometry x="1270" y="60" width="490" height="310" as="geometry" />
        </mxCell>
        <mxCell id="2ckgP9qTyjaE4JfGrN5B-17" style="edgeStyle=orthogonalEdgeStyle;rounded=0;orthogonalLoop=1;jettySize=auto;html=1;entryX=0.95;entryY=0.7;entryDx=0;entryDy=0;entryPerimeter=0;endArrow=none;endFill=0;strokeColor=none;" parent="2ckgP9qTyjaE4JfGrN5B-16" source="2ckgP9qTyjaE4JfGrN5B-24" edge="1">
          <mxGeometry relative="1" as="geometry">
            <mxPoint x="340" y="310" as="targetPoint" />
          </mxGeometry>
        </mxCell>
        <mxCell id="2ckgP9qTyjaE4JfGrN5B-18" style="edgeStyle=orthogonalEdgeStyle;rounded=0;orthogonalLoop=1;jettySize=auto;html=1;entryX=0.764;entryY=0.8;entryDx=0;entryDy=0;entryPerimeter=0;endArrow=none;endFill=0;dashed=1;dashPattern=12 12;" parent="2ckgP9qTyjaE4JfGrN5B-16" source="2ckgP9qTyjaE4JfGrN5B-21" target="2ckgP9qTyjaE4JfGrN5B-22" edge="1">
          <mxGeometry relative="1" as="geometry" />
        </mxCell>
        <mxCell id="2ckgP9qTyjaE4JfGrN5B-19" style="edgeStyle=orthogonalEdgeStyle;rounded=0;orthogonalLoop=1;jettySize=auto;html=1;entryX=0.526;entryY=0.943;entryDx=0;entryDy=0;entryPerimeter=0;endArrow=none;endFill=0;dashed=1;dashPattern=12 12;" parent="2ckgP9qTyjaE4JfGrN5B-16" source="2ckgP9qTyjaE4JfGrN5B-23" target="2ckgP9qTyjaE4JfGrN5B-22" edge="1">
          <mxGeometry relative="1" as="geometry" />
        </mxCell>
        <mxCell id="2ckgP9qTyjaE4JfGrN5B-20" value="" style="rounded=0;whiteSpace=wrap;html=1;fillColor=none;strokeColor=default;dashed=1;dashPattern=12 12;labelPosition=center;verticalLabelPosition=bottom;align=center;verticalAlign=top;" parent="2ckgP9qTyjaE4JfGrN5B-16" vertex="1">
          <mxGeometry x="10" y="10" width="480" height="250" as="geometry" />
        </mxCell>
        <mxCell id="2ckgP9qTyjaE4JfGrN5B-21" value="" style="shape=waypoint;sketch=0;fillStyle=solid;size=6;pointerEvents=1;points=[];fillColor=none;resizable=0;rotatable=0;perimeter=centerPerimeter;snapToPoint=1;strokeColor=none;" parent="2ckgP9qTyjaE4JfGrN5B-16" vertex="1">
          <mxGeometry y="68" width="20" height="20" as="geometry" />
        </mxCell>
        <mxCell id="2ckgP9qTyjaE4JfGrN5B-22" value="" style="shape=waypoint;sketch=0;fillStyle=solid;size=6;pointerEvents=1;points=[];fillColor=none;resizable=0;rotatable=0;perimeter=centerPerimeter;snapToPoint=1;strokeColor=none;" parent="2ckgP9qTyjaE4JfGrN5B-16" vertex="1">
          <mxGeometry x="230" y="68" width="20" height="20" as="geometry" />
        </mxCell>
        <mxCell id="2ckgP9qTyjaE4JfGrN5B-23" value="" style="shape=waypoint;sketch=0;fillStyle=solid;size=6;pointerEvents=1;points=[];fillColor=none;resizable=0;rotatable=0;perimeter=centerPerimeter;snapToPoint=1;strokeColor=none;" parent="2ckgP9qTyjaE4JfGrN5B-16" vertex="1">
          <mxGeometry x="230" width="20" height="20" as="geometry" />
        </mxCell>
        <mxCell id="2ckgP9qTyjaE4JfGrN5B-25" value="Accelerometer" style="sketch=0;outlineConnect=0;fontColor=#232F3E;gradientColor=none;strokeColor=#ffffff;fillColor=#232F3E;dashed=0;verticalLabelPosition=middle;verticalAlign=bottom;align=center;html=1;whiteSpace=wrap;fontSize=10;fontStyle=1;spacing=3;shape=mxgraph.aws4.productIcon;prIcon=mxgraph.aws4.s3;movable=1;resizable=1;rotatable=1;deletable=1;editable=1;locked=0;connectable=1;points=[];" parent="2ckgP9qTyjaE4JfGrN5B-16" vertex="1">
          <mxGeometry x="370" y="120" width="80" height="100" as="geometry" />
        </mxCell>
        <mxCell id="2ckgP9qTyjaE4JfGrN5B-26" value="Customer" style="sketch=0;outlineConnect=0;fontColor=#232F3E;gradientColor=none;strokeColor=#ffffff;fillColor=#232F3E;dashed=0;verticalLabelPosition=middle;verticalAlign=bottom;align=center;html=1;whiteSpace=wrap;fontSize=10;fontStyle=1;spacing=3;shape=mxgraph.aws4.productIcon;prIcon=mxgraph.aws4.s3;movable=1;resizable=1;rotatable=1;deletable=1;editable=1;locked=0;connectable=1;points=[];" parent="2ckgP9qTyjaE4JfGrN5B-16" vertex="1">
          <mxGeometry x="50" y="119.99999999999997" width="80" height="100" as="geometry" />
        </mxCell>
        <mxCell id="2ckgP9qTyjaE4JfGrN5B-27" value="Trusted Zone" style="sketch=0;points=[[0,0,0],[0.25,0,0],[0.5,0,0],[0.75,0,0],[1,0,0],[0,1,0],[0.25,1,0],[0.5,1,0],[0.75,1,0],[1,1,0],[0,0.25,0],[0,0.5,0],[0,0.75,0],[1,0.25,0],[1,0.5,0],[1,0.75,0]];outlineConnect=0;fontColor=#232F3E;fillColor=#660033;strokeColor=#ffffff;dashed=0;verticalLabelPosition=middle;verticalAlign=middle;align=left;html=1;fontSize=12;fontStyle=0;aspect=fixed;shape=mxgraph.aws4.resourceIcon;resIcon=mxgraph.aws4.s3;labelPosition=right;" parent="2ckgP9qTyjaE4JfGrN5B-16" vertex="1">
          <mxGeometry x="20" y="20" width="48" height="48" as="geometry" />
        </mxCell>
        <mxCell id="2ckgP9qTyjaE4JfGrN5B-24" value="Step Trainer" style="sketch=0;outlineConnect=0;fontColor=#232F3E;gradientColor=none;strokeColor=#ffffff;fillColor=#232F3E;dashed=0;verticalLabelPosition=middle;verticalAlign=bottom;align=center;html=1;whiteSpace=wrap;fontSize=10;fontStyle=1;spacing=3;shape=mxgraph.aws4.productIcon;prIcon=mxgraph.aws4.s3;movable=1;resizable=1;rotatable=1;deletable=1;editable=1;locked=0;connectable=1;points=[];" parent="2ckgP9qTyjaE4JfGrN5B-16" vertex="1">
          <mxGeometry x="210" y="120" width="80" height="100" as="geometry" />
        </mxCell>
        <mxCell id="2ckgP9qTyjaE4JfGrN5B-28" value="" style="group" parent="jaVn6kAeWoAx7fAeWD2t-1" vertex="1" connectable="0">
          <mxGeometry x="2380" y="60" width="490" height="310" as="geometry" />
        </mxCell>
        <mxCell id="2ckgP9qTyjaE4JfGrN5B-29" style="edgeStyle=orthogonalEdgeStyle;rounded=0;orthogonalLoop=1;jettySize=auto;html=1;entryX=0.95;entryY=0.7;entryDx=0;entryDy=0;entryPerimeter=0;endArrow=none;endFill=0;strokeColor=none;" parent="2ckgP9qTyjaE4JfGrN5B-28" edge="1">
          <mxGeometry relative="1" as="geometry">
            <mxPoint x="340" y="310" as="targetPoint" />
            <mxPoint x="350" y="230" as="sourcePoint" />
          </mxGeometry>
        </mxCell>
        <mxCell id="2ckgP9qTyjaE4JfGrN5B-30" style="edgeStyle=orthogonalEdgeStyle;rounded=0;orthogonalLoop=1;jettySize=auto;html=1;entryX=0.764;entryY=0.8;entryDx=0;entryDy=0;entryPerimeter=0;endArrow=none;endFill=0;dashed=1;dashPattern=12 12;" parent="2ckgP9qTyjaE4JfGrN5B-28" source="2ckgP9qTyjaE4JfGrN5B-33" target="2ckgP9qTyjaE4JfGrN5B-34" edge="1">
          <mxGeometry relative="1" as="geometry" />
        </mxCell>
        <mxCell id="2ckgP9qTyjaE4JfGrN5B-31" style="edgeStyle=orthogonalEdgeStyle;rounded=0;orthogonalLoop=1;jettySize=auto;html=1;entryX=0.526;entryY=0.943;entryDx=0;entryDy=0;entryPerimeter=0;endArrow=none;endFill=0;dashed=1;dashPattern=12 12;" parent="2ckgP9qTyjaE4JfGrN5B-28" source="2ckgP9qTyjaE4JfGrN5B-35" target="2ckgP9qTyjaE4JfGrN5B-34" edge="1">
          <mxGeometry relative="1" as="geometry" />
        </mxCell>
        <mxCell id="2ckgP9qTyjaE4JfGrN5B-32" value="" style="rounded=0;whiteSpace=wrap;html=1;fillColor=none;strokeColor=default;dashed=1;dashPattern=12 12;labelPosition=center;verticalLabelPosition=bottom;align=center;verticalAlign=top;" parent="2ckgP9qTyjaE4JfGrN5B-28" vertex="1">
          <mxGeometry x="10" y="10" width="480" height="250" as="geometry" />
        </mxCell>
        <mxCell id="2ckgP9qTyjaE4JfGrN5B-33" value="" style="shape=waypoint;sketch=0;fillStyle=solid;size=6;pointerEvents=1;points=[];fillColor=none;resizable=0;rotatable=0;perimeter=centerPerimeter;snapToPoint=1;strokeColor=none;" parent="2ckgP9qTyjaE4JfGrN5B-28" vertex="1">
          <mxGeometry y="68" width="20" height="20" as="geometry" />
        </mxCell>
        <mxCell id="2ckgP9qTyjaE4JfGrN5B-34" value="" style="shape=waypoint;sketch=0;fillStyle=solid;size=6;pointerEvents=1;points=[];fillColor=none;resizable=0;rotatable=0;perimeter=centerPerimeter;snapToPoint=1;strokeColor=none;" parent="2ckgP9qTyjaE4JfGrN5B-28" vertex="1">
          <mxGeometry x="230" y="68" width="20" height="20" as="geometry" />
        </mxCell>
        <mxCell id="2ckgP9qTyjaE4JfGrN5B-35" value="" style="shape=waypoint;sketch=0;fillStyle=solid;size=6;pointerEvents=1;points=[];fillColor=none;resizable=0;rotatable=0;perimeter=centerPerimeter;snapToPoint=1;strokeColor=none;" parent="2ckgP9qTyjaE4JfGrN5B-28" vertex="1">
          <mxGeometry x="230" width="20" height="20" as="geometry" />
        </mxCell>
        <mxCell id="2ckgP9qTyjaE4JfGrN5B-38" value="Customer" style="sketch=0;outlineConnect=0;fontColor=#232F3E;gradientColor=none;strokeColor=#ffffff;fillColor=#232F3E;dashed=0;verticalLabelPosition=middle;verticalAlign=bottom;align=center;html=1;whiteSpace=wrap;fontSize=10;fontStyle=1;spacing=3;shape=mxgraph.aws4.productIcon;prIcon=mxgraph.aws4.s3;movable=1;resizable=1;rotatable=1;deletable=1;editable=1;locked=0;connectable=1;points=[];" parent="2ckgP9qTyjaE4JfGrN5B-28" vertex="1">
          <mxGeometry x="90" y="119.99999999999997" width="80" height="100" as="geometry" />
        </mxCell>
        <mxCell id="2ckgP9qTyjaE4JfGrN5B-39" value="Curated Zone" style="sketch=0;points=[[0,0,0],[0.25,0,0],[0.5,0,0],[0.75,0,0],[1,0,0],[0,1,0],[0.25,1,0],[0.5,1,0],[0.75,1,0],[1,1,0],[0,0.25,0],[0,0.5,0],[0,0.75,0],[1,0.25,0],[1,0.5,0],[1,0.75,0]];outlineConnect=0;fontColor=#232F3E;fillColor=#660033;strokeColor=#ffffff;dashed=0;verticalLabelPosition=middle;verticalAlign=middle;align=left;html=1;fontSize=12;fontStyle=0;aspect=fixed;shape=mxgraph.aws4.resourceIcon;resIcon=mxgraph.aws4.s3;labelPosition=right;" parent="2ckgP9qTyjaE4JfGrN5B-28" vertex="1">
          <mxGeometry x="20" y="20" width="48" height="48" as="geometry" />
        </mxCell>
        <mxCell id="oNqkY1ey6xHTC4xnHwsc-0" value="Step Trainer" style="sketch=0;outlineConnect=0;fontColor=#232F3E;gradientColor=none;strokeColor=#ffffff;fillColor=#232F3E;dashed=0;verticalLabelPosition=middle;verticalAlign=bottom;align=center;html=1;whiteSpace=wrap;fontSize=10;fontStyle=1;spacing=3;shape=mxgraph.aws4.productIcon;prIcon=mxgraph.aws4.s3;movable=1;resizable=1;rotatable=1;deletable=1;editable=1;locked=0;connectable=1;points=[];" vertex="1" parent="2ckgP9qTyjaE4JfGrN5B-28">
          <mxGeometry x="330" y="120" width="80" height="100" as="geometry" />
        </mxCell>
        <mxCell id="2ckgP9qTyjaE4JfGrN5B-99" value="" style="group" parent="jaVn6kAeWoAx7fAeWD2t-1" vertex="1" connectable="0">
          <mxGeometry x="1295" y="1180" width="440" height="310" as="geometry" />
        </mxCell>
        <mxCell id="2ckgP9qTyjaE4JfGrN5B-90" value="" style="rounded=0;whiteSpace=wrap;html=1;fillColor=none;strokeColor=default;dashed=1;dashPattern=12 12;labelPosition=center;verticalLabelPosition=bottom;align=center;verticalAlign=top;" parent="2ckgP9qTyjaE4JfGrN5B-99" vertex="1">
          <mxGeometry x="10" y="10" width="430" height="250" as="geometry" />
        </mxCell>
        <mxCell id="jaVn6kAeWoAx7fAeWD2t-11" value="Athena" style="sketch=0;outlineConnect=0;fontColor=#232F3E;gradientColor=none;strokeColor=#ffffff;fillColor=#232F3E;dashed=0;verticalLabelPosition=middle;verticalAlign=bottom;align=center;html=1;whiteSpace=wrap;fontSize=10;fontStyle=1;spacing=3;shape=mxgraph.aws4.productIcon;prIcon=mxgraph.aws4.athena;" parent="2ckgP9qTyjaE4JfGrN5B-99" vertex="1">
          <mxGeometry x="185" y="120" width="80" height="100" as="geometry" />
        </mxCell>
        <mxCell id="2ckgP9qTyjaE4JfGrN5B-98" value="Querying Analysis" style="sketch=0;html=1;aspect=fixed;strokeColor=none;shadow=0;fillColor=#3B8DF1;verticalAlign=middle;labelPosition=right;verticalLabelPosition=middle;shape=mxgraph.gcp2.big_query;align=left;" parent="2ckgP9qTyjaE4JfGrN5B-99" vertex="1">
          <mxGeometry x="20" y="20" width="47.52" height="48" as="geometry" />
        </mxCell>
        <mxCell id="2ckgP9qTyjaE4JfGrN5B-87" style="edgeStyle=orthogonalEdgeStyle;rounded=0;orthogonalLoop=1;jettySize=auto;html=1;entryX=0.95;entryY=0.7;entryDx=0;entryDy=0;entryPerimeter=0;endArrow=none;endFill=0;strokeColor=none;" parent="2ckgP9qTyjaE4JfGrN5B-99" edge="1">
          <mxGeometry relative="1" as="geometry">
            <mxPoint x="340" y="310" as="targetPoint" />
            <mxPoint x="290" y="170.03999999999996" as="sourcePoint" />
          </mxGeometry>
        </mxCell>
        <mxCell id="2ckgP9qTyjaE4JfGrN5B-88" style="edgeStyle=orthogonalEdgeStyle;rounded=0;orthogonalLoop=1;jettySize=auto;html=1;entryX=0.764;entryY=0.8;entryDx=0;entryDy=0;entryPerimeter=0;endArrow=none;endFill=0;dashed=1;dashPattern=12 12;" parent="2ckgP9qTyjaE4JfGrN5B-99" source="2ckgP9qTyjaE4JfGrN5B-91" target="2ckgP9qTyjaE4JfGrN5B-92" edge="1">
          <mxGeometry relative="1" as="geometry" />
        </mxCell>
        <mxCell id="2ckgP9qTyjaE4JfGrN5B-89" style="edgeStyle=orthogonalEdgeStyle;rounded=0;orthogonalLoop=1;jettySize=auto;html=1;entryX=0.526;entryY=0.943;entryDx=0;entryDy=0;entryPerimeter=0;endArrow=none;endFill=0;dashed=1;dashPattern=12 12;" parent="2ckgP9qTyjaE4JfGrN5B-99" source="2ckgP9qTyjaE4JfGrN5B-93" target="2ckgP9qTyjaE4JfGrN5B-92" edge="1">
          <mxGeometry relative="1" as="geometry" />
        </mxCell>
        <mxCell id="2ckgP9qTyjaE4JfGrN5B-91" value="" style="shape=waypoint;sketch=0;fillStyle=solid;size=6;pointerEvents=1;points=[];fillColor=none;resizable=0;rotatable=0;perimeter=centerPerimeter;snapToPoint=1;strokeColor=none;" parent="2ckgP9qTyjaE4JfGrN5B-99" vertex="1">
          <mxGeometry y="68" width="20" height="20" as="geometry" />
        </mxCell>
        <mxCell id="2ckgP9qTyjaE4JfGrN5B-92" value="" style="shape=waypoint;sketch=0;fillStyle=solid;size=6;pointerEvents=1;points=[];fillColor=none;resizable=0;rotatable=0;perimeter=centerPerimeter;snapToPoint=1;strokeColor=none;" parent="2ckgP9qTyjaE4JfGrN5B-99" vertex="1">
          <mxGeometry x="230" y="68" width="20" height="20" as="geometry" />
        </mxCell>
        <mxCell id="2ckgP9qTyjaE4JfGrN5B-93" value="" style="shape=waypoint;sketch=0;fillStyle=solid;size=6;pointerEvents=1;points=[];fillColor=none;resizable=0;rotatable=0;perimeter=centerPerimeter;snapToPoint=1;strokeColor=none;" parent="2ckgP9qTyjaE4JfGrN5B-99" vertex="1">
          <mxGeometry x="230" width="20" height="20" as="geometry" />
        </mxCell>
        <mxCell id="2ckgP9qTyjaE4JfGrN5B-116" value="" style="group" parent="jaVn6kAeWoAx7fAeWD2t-1" vertex="1" connectable="0">
          <mxGeometry x="710" y="370" width="480" height="310" as="geometry" />
        </mxCell>
        <mxCell id="2ckgP9qTyjaE4JfGrN5B-107" value="" style="rounded=0;whiteSpace=wrap;html=1;fillColor=none;strokeColor=default;dashed=1;dashPattern=12 12;labelPosition=center;verticalLabelPosition=bottom;align=center;verticalAlign=top;" parent="2ckgP9qTyjaE4JfGrN5B-116" vertex="1">
          <mxGeometry x="10" y="10" width="470" height="240" as="geometry" />
        </mxCell>
        <mxCell id="jaVn6kAeWoAx7fAeWD2t-44" value="Customer" style="sketch=0;outlineConnect=0;fontColor=#232F3E;gradientColor=none;strokeColor=#ffffff;fillColor=#232F3E;dashed=0;verticalLabelPosition=middle;verticalAlign=bottom;align=center;html=1;whiteSpace=wrap;fontSize=10;fontStyle=1;spacing=3;shape=mxgraph.aws4.productIcon;prIcon=mxgraph.aws4.glue;" parent="2ckgP9qTyjaE4JfGrN5B-116" vertex="1">
          <mxGeometry x="40" y="114" width="80" height="100" as="geometry" />
        </mxCell>
        <mxCell id="2ckgP9qTyjaE4JfGrN5B-84" value="Accelerometer" style="sketch=0;outlineConnect=0;fontColor=#232F3E;gradientColor=none;strokeColor=#ffffff;fillColor=#232F3E;dashed=0;verticalLabelPosition=middle;verticalAlign=bottom;align=center;html=1;whiteSpace=wrap;fontSize=10;fontStyle=1;spacing=3;shape=mxgraph.aws4.productIcon;prIcon=mxgraph.aws4.glue;" parent="2ckgP9qTyjaE4JfGrN5B-116" vertex="1">
          <mxGeometry x="360" y="114" width="80" height="100" as="geometry" />
        </mxCell>
        <mxCell id="2ckgP9qTyjaE4JfGrN5B-104" style="edgeStyle=orthogonalEdgeStyle;rounded=0;orthogonalLoop=1;jettySize=auto;html=1;entryX=0.95;entryY=0.7;entryDx=0;entryDy=0;entryPerimeter=0;endArrow=none;endFill=0;strokeColor=none;" parent="2ckgP9qTyjaE4JfGrN5B-116" edge="1">
          <mxGeometry relative="1" as="geometry">
            <mxPoint x="340" y="310" as="targetPoint" />
            <mxPoint x="290" y="170.03999999999996" as="sourcePoint" />
          </mxGeometry>
        </mxCell>
        <mxCell id="2ckgP9qTyjaE4JfGrN5B-105" style="edgeStyle=orthogonalEdgeStyle;rounded=0;orthogonalLoop=1;jettySize=auto;html=1;entryX=0.764;entryY=0.8;entryDx=0;entryDy=0;entryPerimeter=0;endArrow=none;endFill=0;dashed=1;dashPattern=12 12;" parent="2ckgP9qTyjaE4JfGrN5B-116" source="2ckgP9qTyjaE4JfGrN5B-108" target="2ckgP9qTyjaE4JfGrN5B-109" edge="1">
          <mxGeometry relative="1" as="geometry" />
        </mxCell>
        <mxCell id="2ckgP9qTyjaE4JfGrN5B-106" style="edgeStyle=orthogonalEdgeStyle;rounded=0;orthogonalLoop=1;jettySize=auto;html=1;entryX=0.526;entryY=0.943;entryDx=0;entryDy=0;entryPerimeter=0;endArrow=none;endFill=0;dashed=1;dashPattern=12 12;" parent="2ckgP9qTyjaE4JfGrN5B-116" source="2ckgP9qTyjaE4JfGrN5B-110" target="2ckgP9qTyjaE4JfGrN5B-109" edge="1">
          <mxGeometry relative="1" as="geometry" />
        </mxCell>
        <mxCell id="2ckgP9qTyjaE4JfGrN5B-108" value="" style="shape=waypoint;sketch=0;fillStyle=solid;size=6;pointerEvents=1;points=[];fillColor=none;resizable=0;rotatable=0;perimeter=centerPerimeter;snapToPoint=1;strokeColor=none;" parent="2ckgP9qTyjaE4JfGrN5B-116" vertex="1">
          <mxGeometry y="68" width="20" height="20" as="geometry" />
        </mxCell>
        <mxCell id="2ckgP9qTyjaE4JfGrN5B-109" value="" style="shape=waypoint;sketch=0;fillStyle=solid;size=6;pointerEvents=1;points=[];fillColor=none;resizable=0;rotatable=0;perimeter=centerPerimeter;snapToPoint=1;strokeColor=none;" parent="2ckgP9qTyjaE4JfGrN5B-116" vertex="1">
          <mxGeometry x="230" y="68" width="20" height="20" as="geometry" />
        </mxCell>
        <mxCell id="2ckgP9qTyjaE4JfGrN5B-110" value="" style="shape=waypoint;sketch=0;fillStyle=solid;size=6;pointerEvents=1;points=[];fillColor=none;resizable=0;rotatable=0;perimeter=centerPerimeter;snapToPoint=1;strokeColor=none;" parent="2ckgP9qTyjaE4JfGrN5B-116" vertex="1">
          <mxGeometry x="230" width="20" height="20" as="geometry" />
        </mxCell>
        <mxCell id="2ckgP9qTyjaE4JfGrN5B-115" value="Glue Jobs Landing To Trusted" style="sketch=0;points=[[0,0,0],[0.25,0,0],[0.5,0,0],[0.75,0,0],[1,0,0],[0,1,0],[0.25,1,0],[0.5,1,0],[0.75,1,0],[1,1,0],[0,0.25,0],[0,0.5,0],[0,0.75,0],[1,0.25,0],[1,0.5,0],[1,0.75,0]];outlineConnect=0;fontColor=#232F3E;fillColor=#8C4FFF;strokeColor=#ffffff;dashed=0;verticalLabelPosition=middle;verticalAlign=middle;align=left;html=1;fontSize=12;fontStyle=0;aspect=fixed;shape=mxgraph.aws4.resourceIcon;resIcon=mxgraph.aws4.glue;labelPosition=right;" parent="2ckgP9qTyjaE4JfGrN5B-116" vertex="1">
          <mxGeometry x="20" y="20" width="48" height="48" as="geometry" />
        </mxCell>
        <mxCell id="2ckgP9qTyjaE4JfGrN5B-83" value="Step Trainer" style="sketch=0;outlineConnect=0;fontColor=#232F3E;gradientColor=none;strokeColor=#ffffff;fillColor=#232F3E;dashed=0;verticalLabelPosition=middle;verticalAlign=bottom;align=center;html=1;whiteSpace=wrap;fontSize=10;fontStyle=1;spacing=3;shape=mxgraph.aws4.productIcon;prIcon=mxgraph.aws4.glue;" parent="2ckgP9qTyjaE4JfGrN5B-116" vertex="1">
          <mxGeometry x="200" y="114" width="80" height="100" as="geometry" />
        </mxCell>
        <mxCell id="2ckgP9qTyjaE4JfGrN5B-117" style="edgeStyle=orthogonalEdgeStyle;rounded=0;orthogonalLoop=1;jettySize=auto;html=1;" parent="jaVn6kAeWoAx7fAeWD2t-1" source="2ckgP9qTyjaE4JfGrN5B-3" target="2ckgP9qTyjaE4JfGrN5B-107" edge="1">
          <mxGeometry relative="1" as="geometry" />
        </mxCell>
        <mxCell id="2ckgP9qTyjaE4JfGrN5B-118" style="edgeStyle=orthogonalEdgeStyle;rounded=0;orthogonalLoop=1;jettySize=auto;html=1;entryX=0.25;entryY=1;entryDx=0;entryDy=0;" parent="jaVn6kAeWoAx7fAeWD2t-1" source="2ckgP9qTyjaE4JfGrN5B-107" target="2ckgP9qTyjaE4JfGrN5B-20" edge="1">
          <mxGeometry relative="1" as="geometry" />
        </mxCell>
        <mxCell id="2ckgP9qTyjaE4JfGrN5B-121" value="" style="group" parent="jaVn6kAeWoAx7fAeWD2t-1" vertex="1" connectable="0">
          <mxGeometry x="1140" y="700" width="750" height="310" as="geometry" />
        </mxCell>
        <mxCell id="2ckgP9qTyjaE4JfGrN5B-15" value="Glue Data Catalog" style="sketch=0;outlineConnect=0;fontColor=#232F3E;gradientColor=none;fillColor=#8C4FFF;strokeColor=none;dashed=0;verticalLabelPosition=middle;verticalAlign=middle;align=left;html=1;fontSize=12;fontStyle=0;aspect=fixed;pointerEvents=1;shape=mxgraph.aws4.glue_data_catalog;labelPosition=right;" parent="2ckgP9qTyjaE4JfGrN5B-121" vertex="1">
          <mxGeometry x="30" y="20" width="44.31" height="48" as="geometry" />
        </mxCell>
        <mxCell id="2ckgP9qTyjaE4JfGrN5B-41" style="edgeStyle=orthogonalEdgeStyle;rounded=0;orthogonalLoop=1;jettySize=auto;html=1;entryX=0.95;entryY=0.7;entryDx=0;entryDy=0;entryPerimeter=0;endArrow=none;endFill=0;strokeColor=none;" parent="2ckgP9qTyjaE4JfGrN5B-121" edge="1">
          <mxGeometry relative="1" as="geometry">
            <mxPoint x="340" y="310" as="targetPoint" />
            <mxPoint x="290" y="170.03999999999996" as="sourcePoint" />
          </mxGeometry>
        </mxCell>
        <mxCell id="2ckgP9qTyjaE4JfGrN5B-42" style="edgeStyle=orthogonalEdgeStyle;rounded=0;orthogonalLoop=1;jettySize=auto;html=1;entryX=0.764;entryY=0.8;entryDx=0;entryDy=0;entryPerimeter=0;endArrow=none;endFill=0;dashed=1;dashPattern=12 12;" parent="2ckgP9qTyjaE4JfGrN5B-121" source="2ckgP9qTyjaE4JfGrN5B-45" target="2ckgP9qTyjaE4JfGrN5B-46" edge="1">
          <mxGeometry relative="1" as="geometry" />
        </mxCell>
        <mxCell id="2ckgP9qTyjaE4JfGrN5B-43" style="edgeStyle=orthogonalEdgeStyle;rounded=0;orthogonalLoop=1;jettySize=auto;html=1;entryX=0.526;entryY=0.943;entryDx=0;entryDy=0;entryPerimeter=0;endArrow=none;endFill=0;dashed=1;dashPattern=12 12;" parent="2ckgP9qTyjaE4JfGrN5B-121" source="2ckgP9qTyjaE4JfGrN5B-47" target="2ckgP9qTyjaE4JfGrN5B-46" edge="1">
          <mxGeometry relative="1" as="geometry" />
        </mxCell>
        <mxCell id="2ckgP9qTyjaE4JfGrN5B-44" value="" style="rounded=0;whiteSpace=wrap;html=1;fillColor=none;strokeColor=default;dashed=1;dashPattern=12 12;labelPosition=center;verticalLabelPosition=bottom;align=center;verticalAlign=top;" parent="2ckgP9qTyjaE4JfGrN5B-121" vertex="1">
          <mxGeometry x="10" y="10" width="740" height="250" as="geometry" />
        </mxCell>
        <mxCell id="2ckgP9qTyjaE4JfGrN5B-45" value="" style="shape=waypoint;sketch=0;fillStyle=solid;size=6;pointerEvents=1;points=[];fillColor=none;resizable=0;rotatable=0;perimeter=centerPerimeter;snapToPoint=1;strokeColor=none;" parent="2ckgP9qTyjaE4JfGrN5B-121" vertex="1">
          <mxGeometry y="68" width="20" height="20" as="geometry" />
        </mxCell>
        <mxCell id="2ckgP9qTyjaE4JfGrN5B-46" value="" style="shape=waypoint;sketch=0;fillStyle=solid;size=6;pointerEvents=1;points=[];fillColor=none;resizable=0;rotatable=0;perimeter=centerPerimeter;snapToPoint=1;strokeColor=none;" parent="2ckgP9qTyjaE4JfGrN5B-121" vertex="1">
          <mxGeometry x="230" y="68" width="20" height="20" as="geometry" />
        </mxCell>
        <mxCell id="2ckgP9qTyjaE4JfGrN5B-47" value="" style="shape=waypoint;sketch=0;fillStyle=solid;size=6;pointerEvents=1;points=[];fillColor=none;resizable=0;rotatable=0;perimeter=centerPerimeter;snapToPoint=1;strokeColor=none;" parent="2ckgP9qTyjaE4JfGrN5B-121" vertex="1">
          <mxGeometry x="230" width="20" height="20" as="geometry" />
        </mxCell>
        <mxCell id="2ckgP9qTyjaE4JfGrN5B-52" value="Glue Database" style="shape=cylinder3;whiteSpace=wrap;html=1;boundedLbl=1;backgroundOutline=1;size=15;labelPosition=center;verticalLabelPosition=bottom;align=center;verticalAlign=top;fillColor=none;" parent="2ckgP9qTyjaE4JfGrN5B-121" vertex="1">
          <mxGeometry x="50" y="120.5" width="60" height="80" as="geometry" />
        </mxCell>
        <mxCell id="2ckgP9qTyjaE4JfGrN5B-79" value="Glue Tables&lt;br&gt;Customer" style="sketch=0;outlineConnect=0;fontColor=#232F3E;gradientColor=none;fillColor=#232F3D;strokeColor=none;dashed=0;verticalLabelPosition=bottom;verticalAlign=top;align=center;html=1;fontSize=12;fontStyle=0;aspect=fixed;pointerEvents=1;shape=mxgraph.aws4.data_table;" parent="2ckgP9qTyjaE4JfGrN5B-121" vertex="1">
          <mxGeometry x="150" y="120.5" width="105.76" height="80" as="geometry" />
        </mxCell>
        <mxCell id="2ckgP9qTyjaE4JfGrN5B-80" value="Glue Tables&lt;br&gt;Step Trainer" style="sketch=0;outlineConnect=0;fontColor=#232F3E;gradientColor=none;fillColor=#232F3D;strokeColor=none;dashed=0;verticalLabelPosition=bottom;verticalAlign=top;align=center;html=1;fontSize=12;fontStyle=0;aspect=fixed;pointerEvents=1;shape=mxgraph.aws4.data_table;" parent="2ckgP9qTyjaE4JfGrN5B-121" vertex="1">
          <mxGeometry x="300" y="120" width="105.76" height="80" as="geometry" />
        </mxCell>
        <mxCell id="2ckgP9qTyjaE4JfGrN5B-81" value="Glue Tables&lt;br&gt;Accelerometer" style="sketch=0;outlineConnect=0;fontColor=#232F3E;gradientColor=none;fillColor=#232F3D;strokeColor=none;dashed=0;verticalLabelPosition=bottom;verticalAlign=top;align=center;html=1;fontSize=12;fontStyle=0;aspect=fixed;pointerEvents=1;shape=mxgraph.aws4.data_table;" parent="2ckgP9qTyjaE4JfGrN5B-121" vertex="1">
          <mxGeometry x="450" y="120" width="105.76" height="80" as="geometry" />
        </mxCell>
        <mxCell id="2ckgP9qTyjaE4JfGrN5B-120" value="Glue Tables&lt;br&gt;Machine Learning" style="sketch=0;outlineConnect=0;fontColor=#232F3E;gradientColor=none;fillColor=#232F3D;strokeColor=none;dashed=0;verticalLabelPosition=bottom;verticalAlign=top;align=center;html=1;fontSize=12;fontStyle=0;aspect=fixed;pointerEvents=1;shape=mxgraph.aws4.data_table;" parent="2ckgP9qTyjaE4JfGrN5B-121" vertex="1">
          <mxGeometry x="600" y="120.5" width="105.76" height="80" as="geometry" />
        </mxCell>
        <mxCell id="2ckgP9qTyjaE4JfGrN5B-122" value="" style="group" parent="jaVn6kAeWoAx7fAeWD2t-1" vertex="1" connectable="0">
          <mxGeometry x="1828" y="370" width="480" height="310" as="geometry" />
        </mxCell>
        <mxCell id="2ckgP9qTyjaE4JfGrN5B-123" value="" style="rounded=0;whiteSpace=wrap;html=1;fillColor=none;strokeColor=default;dashed=1;dashPattern=12 12;labelPosition=center;verticalLabelPosition=bottom;align=center;verticalAlign=top;" parent="2ckgP9qTyjaE4JfGrN5B-122" vertex="1">
          <mxGeometry x="10" y="10" width="470" height="240" as="geometry" />
        </mxCell>
        <mxCell id="2ckgP9qTyjaE4JfGrN5B-124" value="Customer" style="sketch=0;outlineConnect=0;fontColor=#232F3E;gradientColor=none;strokeColor=#ffffff;fillColor=#232F3E;dashed=0;verticalLabelPosition=middle;verticalAlign=bottom;align=center;html=1;whiteSpace=wrap;fontSize=10;fontStyle=1;spacing=3;shape=mxgraph.aws4.productIcon;prIcon=mxgraph.aws4.glue;" parent="2ckgP9qTyjaE4JfGrN5B-122" vertex="1">
          <mxGeometry x="92" y="115" width="80" height="100" as="geometry" />
        </mxCell>
        <mxCell id="2ckgP9qTyjaE4JfGrN5B-127" style="edgeStyle=orthogonalEdgeStyle;rounded=0;orthogonalLoop=1;jettySize=auto;html=1;entryX=0.95;entryY=0.7;entryDx=0;entryDy=0;entryPerimeter=0;endArrow=none;endFill=0;strokeColor=none;" parent="2ckgP9qTyjaE4JfGrN5B-122" edge="1">
          <mxGeometry relative="1" as="geometry">
            <mxPoint x="340" y="310" as="targetPoint" />
            <mxPoint x="290" y="170.03999999999996" as="sourcePoint" />
          </mxGeometry>
        </mxCell>
        <mxCell id="2ckgP9qTyjaE4JfGrN5B-128" style="edgeStyle=orthogonalEdgeStyle;rounded=0;orthogonalLoop=1;jettySize=auto;html=1;entryX=0.764;entryY=0.8;entryDx=0;entryDy=0;entryPerimeter=0;endArrow=none;endFill=0;dashed=1;dashPattern=12 12;" parent="2ckgP9qTyjaE4JfGrN5B-122" source="2ckgP9qTyjaE4JfGrN5B-130" target="2ckgP9qTyjaE4JfGrN5B-131" edge="1">
          <mxGeometry relative="1" as="geometry" />
        </mxCell>
        <mxCell id="2ckgP9qTyjaE4JfGrN5B-129" style="edgeStyle=orthogonalEdgeStyle;rounded=0;orthogonalLoop=1;jettySize=auto;html=1;entryX=0.526;entryY=0.943;entryDx=0;entryDy=0;entryPerimeter=0;endArrow=none;endFill=0;dashed=1;dashPattern=12 12;" parent="2ckgP9qTyjaE4JfGrN5B-122" source="2ckgP9qTyjaE4JfGrN5B-132" target="2ckgP9qTyjaE4JfGrN5B-131" edge="1">
          <mxGeometry relative="1" as="geometry" />
        </mxCell>
        <mxCell id="2ckgP9qTyjaE4JfGrN5B-130" value="" style="shape=waypoint;sketch=0;fillStyle=solid;size=6;pointerEvents=1;points=[];fillColor=none;resizable=0;rotatable=0;perimeter=centerPerimeter;snapToPoint=1;strokeColor=none;" parent="2ckgP9qTyjaE4JfGrN5B-122" vertex="1">
          <mxGeometry y="68" width="20" height="20" as="geometry" />
        </mxCell>
        <mxCell id="2ckgP9qTyjaE4JfGrN5B-131" value="" style="shape=waypoint;sketch=0;fillStyle=solid;size=6;pointerEvents=1;points=[];fillColor=none;resizable=0;rotatable=0;perimeter=centerPerimeter;snapToPoint=1;strokeColor=none;" parent="2ckgP9qTyjaE4JfGrN5B-122" vertex="1">
          <mxGeometry x="230" y="68" width="20" height="20" as="geometry" />
        </mxCell>
        <mxCell id="2ckgP9qTyjaE4JfGrN5B-132" value="" style="shape=waypoint;sketch=0;fillStyle=solid;size=6;pointerEvents=1;points=[];fillColor=none;resizable=0;rotatable=0;perimeter=centerPerimeter;snapToPoint=1;strokeColor=none;" parent="2ckgP9qTyjaE4JfGrN5B-122" vertex="1">
          <mxGeometry x="230" width="20" height="20" as="geometry" />
        </mxCell>
        <mxCell id="2ckgP9qTyjaE4JfGrN5B-133" value="Glue Jobs Trusted To Curated" style="sketch=0;points=[[0,0,0],[0.25,0,0],[0.5,0,0],[0.75,0,0],[1,0,0],[0,1,0],[0.25,1,0],[0.5,1,0],[0.75,1,0],[1,1,0],[0,0.25,0],[0,0.5,0],[0,0.75,0],[1,0.25,0],[1,0.5,0],[1,0.75,0]];outlineConnect=0;fontColor=#232F3E;fillColor=#8C4FFF;strokeColor=#ffffff;dashed=0;verticalLabelPosition=middle;verticalAlign=middle;align=left;html=1;fontSize=12;fontStyle=0;aspect=fixed;shape=mxgraph.aws4.resourceIcon;resIcon=mxgraph.aws4.glue;labelPosition=right;" parent="2ckgP9qTyjaE4JfGrN5B-122" vertex="1">
          <mxGeometry x="20" y="20" width="48" height="48" as="geometry" />
        </mxCell>
        <mxCell id="2ckgP9qTyjaE4JfGrN5B-125" value="Machine Learning" style="sketch=0;outlineConnect=0;fontColor=#232F3E;gradientColor=none;strokeColor=#ffffff;fillColor=#232F3E;dashed=0;verticalLabelPosition=middle;verticalAlign=bottom;align=center;html=1;whiteSpace=wrap;fontSize=10;fontStyle=1;spacing=3;shape=mxgraph.aws4.productIcon;prIcon=mxgraph.aws4.glue;" parent="2ckgP9qTyjaE4JfGrN5B-122" vertex="1">
          <mxGeometry x="332" y="114" width="80" height="109" as="geometry" />
        </mxCell>
        <mxCell id="2ckgP9qTyjaE4JfGrN5B-134" style="edgeStyle=orthogonalEdgeStyle;rounded=0;orthogonalLoop=1;jettySize=auto;html=1;" parent="jaVn6kAeWoAx7fAeWD2t-1" source="2ckgP9qTyjaE4JfGrN5B-20" target="2ckgP9qTyjaE4JfGrN5B-132" edge="1">
          <mxGeometry relative="1" as="geometry" />
        </mxCell>
        <mxCell id="2ckgP9qTyjaE4JfGrN5B-135" style="edgeStyle=orthogonalEdgeStyle;rounded=0;orthogonalLoop=1;jettySize=auto;html=1;entryX=0.25;entryY=1;entryDx=0;entryDy=0;" parent="jaVn6kAeWoAx7fAeWD2t-1" source="2ckgP9qTyjaE4JfGrN5B-123" target="2ckgP9qTyjaE4JfGrN5B-32" edge="1">
          <mxGeometry relative="1" as="geometry" />
        </mxCell>
        <mxCell id="2ckgP9qTyjaE4JfGrN5B-141" style="edgeStyle=orthogonalEdgeStyle;rounded=0;orthogonalLoop=1;jettySize=auto;html=1;entryX=1;entryY=0.5;entryDx=0;entryDy=0;startArrow=classic;startFill=1;" parent="jaVn6kAeWoAx7fAeWD2t-1" source="2ckgP9qTyjaE4JfGrN5B-123" target="2ckgP9qTyjaE4JfGrN5B-44" edge="1">
          <mxGeometry relative="1" as="geometry" />
        </mxCell>
        <mxCell id="2ckgP9qTyjaE4JfGrN5B-142" style="edgeStyle=orthogonalEdgeStyle;rounded=0;orthogonalLoop=1;jettySize=auto;html=1;entryX=0.5;entryY=1;entryDx=0;entryDy=0;" parent="jaVn6kAeWoAx7fAeWD2t-1" source="2ckgP9qTyjaE4JfGrN5B-90" target="2ckgP9qTyjaE4JfGrN5B-44" edge="1">
          <mxGeometry relative="1" as="geometry" />
        </mxCell>
        <mxCell id="YDexITIhgKxMfDyLOPuX-4" style="edgeStyle=orthogonalEdgeStyle;rounded=0;orthogonalLoop=1;jettySize=auto;html=1;entryX=0;entryY=0.75;entryDx=0;entryDy=0;" parent="jaVn6kAeWoAx7fAeWD2t-1" source="YDexITIhgKxMfDyLOPuX-2" target="2ckgP9qTyjaE4JfGrN5B-44" edge="1">
          <mxGeometry relative="1" as="geometry">
            <Array as="points">
              <mxPoint x="740" y="898" />
              <mxPoint x="740" y="898" />
            </Array>
          </mxGeometry>
        </mxCell>
        <mxCell id="YDexITIhgKxMfDyLOPuX-6" value="Create Landing Tables" style="edgeLabel;html=1;align=center;verticalAlign=middle;resizable=0;points=[];" parent="YDexITIhgKxMfDyLOPuX-4" vertex="1" connectable="0">
          <mxGeometry x="-0.2869" y="-3" relative="1" as="geometry">
            <mxPoint x="17" y="-11" as="offset" />
          </mxGeometry>
        </mxCell>
        <mxCell id="YDexITIhgKxMfDyLOPuX-2" value="Athena" style="sketch=0;outlineConnect=0;fontColor=#232F3E;gradientColor=none;strokeColor=#ffffff;fillColor=#232F3E;dashed=0;verticalLabelPosition=middle;verticalAlign=bottom;align=center;html=1;whiteSpace=wrap;fontSize=10;fontStyle=1;spacing=3;shape=mxgraph.aws4.productIcon;prIcon=mxgraph.aws4.athena;" parent="jaVn6kAeWoAx7fAeWD2t-1" vertex="1">
          <mxGeometry x="360" y="860" width="80" height="100" as="geometry" />
        </mxCell>
        <mxCell id="YDexITIhgKxMfDyLOPuX-3" style="edgeStyle=orthogonalEdgeStyle;rounded=0;orthogonalLoop=1;jettySize=auto;html=1;entryX=0;entryY=0.25;entryDx=0;entryDy=0;startArrow=classic;startFill=1;" parent="jaVn6kAeWoAx7fAeWD2t-1" source="2ckgP9qTyjaE4JfGrN5B-107" target="2ckgP9qTyjaE4JfGrN5B-44" edge="1">
          <mxGeometry relative="1" as="geometry" />
        </mxCell>
        <mxCell id="YDexITIhgKxMfDyLOPuX-5" style="edgeStyle=orthogonalEdgeStyle;rounded=0;orthogonalLoop=1;jettySize=auto;html=1;" parent="jaVn6kAeWoAx7fAeWD2t-1" source="2ckgP9qTyjaE4JfGrN5B-3" target="YDexITIhgKxMfDyLOPuX-2" edge="1">
          <mxGeometry relative="1" as="geometry" />
        </mxCell>
      </root>
    </mxGraphModel>
  </diagram>
</mxfile>
